HIERARCHY
ROOT Hips
{
  OFFSET -0.086373 102.405 0.980158
  CHANNELS 6 Xposition Yposition Zposition Zrotation Xrotation Yrotation
  JOINT Spine
  {
    OFFSET 0 10.1816 0.1315
    CHANNELS 3 Zrotation Xrotation Yrotation
    JOINT Spine1
    {
      OFFSET 0 10.0835 -1.0008
      CHANNELS 3 Zrotation Xrotation Yrotation
      JOINT Spine2
      {
        OFFSET 0 9.1 -1.3734
        CHANNELS 3 Zrotation Xrotation Yrotation
        JOINT Neck
        {
          OFFSET 0 16.6717 -2.5162
          CHANNELS 3 Zrotation Xrotation Yrotation
          JOINT Head
          {
            OFFSET 0 9.6179 1.685
            CHANNELS 3 Zrotation Xrotation Yrotation
            End Site
            {
              OFFSET 0 0 0
            }
          }
        }
        JOINT LeftShoulder
        {
          OFFSET 4.5704 10.946 -2.628
          CHANNELS 3 Zrotation Xrotation Yrotation
          JOINT LeftArm
          {
            OFFSET 10.5924 -0.5246 -2.2321
            CHANNELS 3 Zrotation Xrotation Yrotation
            JOINT LeftForeArm
            {
              OFFSET 27.8415 -0.0001 0
              CHANNELS 3 Zrotation Xrotation Yrotation
              JOINT LeftHand
              {
                OFFSET 28.3288 0 0
                CHANNELS 3 Zrotation Xrotation Yrotation
                End Site
                {
                  OFFSET 0 0 0
                }
              }
            }
          }
        }
        JOINT RightShoulder
        {
          OFFSET -4.57 10.9462 -2.628
          CHANNELS 3 Zrotation Xrotation Yrotation
          JOINT RightArm
          {
            OFFSET -10.5928 -0.5248 -2.2321
            CHANNELS 3 Zrotation Xrotation Yrotation
            JOINT RightForeArm
            {
              OFFSET -27.8415 0 0
              CHANNELS 3 Zrotation Xrotation Yrotation
              JOINT RightHand
              {
                OFFSET -28.3288 0 0.0001
                CHANNELS 3 Zrotation Xrotation Yrotation
                End Site
                {
                  OFFSET 0 0 0
                }
              }
            }
          }
        }
      }
    }
  }
  JOINT LeftUpLeg
  {
    OFFSET 8.2078 -6.7517 -1.5996
    CHANNELS 3 Zrotation Xrotation Yrotation
    JOINT LeftLeg
    {
      OFFSET 0 -44.3705 0.2846
      CHANNELS 3 Zrotation Xrotation Yrotation
      JOINT LeftFoot
      {
        OFFSET 0 -44.4279 -2.9822
        CHANNELS 3 Zrotation Xrotation Yrotation
        JOINT LeftToeBase
        {
          OFFSET 0 -8.7287 10.7106
          CHANNELS 3 Zrotation Xrotation Yrotation
          End Site
          {
            OFFSET 0 0 0
          }
        }
      }
    }
  }
  JOINT RightUpLeg
  {
    OFFSET -8.2078 -6.7517 -1.5996
    CHANNELS 3 Zrotation Xrotation Yrotation
    JOINT RightLeg
    {
      OFFSET 0 -44.3705 0.2862
      CHANNELS 3 Zrotation Xrotation Yrotation
      JOINT RightFoot
      {
        OFFSET 0 -44.4277 -2.9838
        CHANNELS 3 Zrotation Xrotation Yrotation
        JOINT RightToeBase
        {
          OFFSET 0 -8.7287 10.7106
          CHANNELS 3 Zrotation Xrotation Yrotation
          End Site
          {
            OFFSET 0 0 0
          }
        }
      }
    }
  }
}
MOTION
Frames:	8
Frame Time:	0.0333333
-0.086373 102.405 0.980158 4.51187 -9.21516 5.88408 -2.35556 15.9825 -4.53007 -0.520726 2.84059 -1.27148 -0.481436 2.85028 -1.26801 1.95991 -10.2181 0.0578434 -0.948971 0.576987 3.95658 -3.08092 2.33762 -2.11627 -73.1095 13.9128 3.58172 -0.000194932 -2.262e-07 -34.4025 2.9596 -23.3226 7.14104 6.50605 3.40926 7.82923 75.526 1.53979 5.24657 7.85724e-06 -1.22214e-06 20.0117 -7.99767 2.31888 -6.80991 -1.0056 -15.7356 5.93671 -1.3349 52.2062 -4.4742 -1.23712 -0.486709 0.0666447 -1.40982e-07 -1.7874 1.7871e-06 -3.73478 -1.76573 -6.45572 3.66732 22.8665 4.70542 -5.7624 -11.039 -0.343748 -1.37888e-06 -1.0162 -1.70136e-06 
0.26234 103.179 5.87945 4.91497 -6.28036 1.95032 -3.79951 13.254 -2.79051 -0.851879 2.22582 -0.583243 -0.830191 2.23385 -0.577617 1.95824 -9.77039 -0.0816809 -1.00855 1.25841 4.13678 -3.90056 2.33766 -0.802281 -72.914 13.5021 6.92404 -0.000218012 5.76751e-06 -33.2683 0.224587 -26.3522 8.71247 6.39284 3.39417 7.98168 75.6064 1.49626 4.29324 -1.00353e-05 -4.23449e-06 20.6109 -8.00243 1.90419 -7.17267 -2.16536 -20.412 6.63245 0.0821949 40.5117 -5.24622 -3.84983 -1.23697 2.90057 3.41721e-07 -2.40741 -3.05138e-07 -5.06283 0.0569165 -5.64283 3.99806 18.3133 3.9877 -5.22201 -11.0407 3.7995 4.73472e-08 -1.92704 5.03368e-07 
0.717298 103.464 10.6659 5.09909 -3.09693 -1.75495 -4.6419 10.4776 -1.48186 -1.04336 1.65643 -0.0284183 -1.03074 1.66195 -0.0199906 1.87053 -9.38247 -0.188857 -1.15237 1.60249 4.26764 -4.81129 2.31836 0.266455 -72.795 12.4691 10.1315 -0.000198555 -4.0764e-06 -32.13 -1.21641 -29.3345 12.2564 6.11161 3.35527 8.35047 75.5417 1.38654 5.29092 1.13917e-05 3.13289e-06 16.7342 -7.75462 1.56241 -4.98492 -3.08228 -24.013 4.76244 1.79984 26.2222 -3.40936 -6.98421 -1.33083 6.94964 -1.23162e-06 -3.64486 3.83068e-06 -6.20633 0.958983 -4.99938 4.28719 14.6562 3.02069 -4.29969 -11.1816 8.05257 -2.83276e-07 -2.82571 2.0333e-06 
1.21688 102.937 15.5493 5.3826 -0.640589 -4.9933 -5.14536 8.30717 -0.298265 -1.08409 1.33086 0.499994 -1.07599 1.33402 0.511786 1.72768 -9.16845 -0.289734 -1.56247 1.68718 4.28241 -5.72321 2.2813 1.31296 -72.6539 10.8768 12.5685 -0.000189174 -4.51317e-06 -30.8521 -2.78755 -30.8044 15.21 5.79662 3.30962 8.75548 75.0557 1.16072 3.71872 4.213e-06 2.84794e-06 18.6177 -7.29606 1.06233 -5.88089 -3.27899 -26.7119 0.244714 3.38284 12.8063 0.594041 -9.60699 -3.00755 12.3308 -4.81348e-06 -3.93897 -4.71479e-07 -7.49876 0.936429 -4.42572 4.47685 14.5987 1.71567 -3.06541 -13.5323 12.0761 1.40086e-06 -3.28536 4.84522e-06 
1.69462 101.963 20.4898 5.40534 0.354034 -7.98548 -5.13318 7.25504 0.960393 -0.992853 1.29994 1.06347 -0.98743 1.30193 1.07715 1.52092 -9.2112 -0.391723 -2.20364 1.3762 4.26219 -6.58428 2.22402 2.51908 -72.0642 9.07626 13.318 -0.000220987 2.55625e-06 -29.1405 -4.63287 -28.9779 16.424 5.48644 3.26247 9.14631 74.2595 0.879298 1.57803 -7.115e-06 -1.89906e-06 22.5652 -7.02395 0.563876 -8.38137 -1.84482 -29.0959 -4.22395 4.42976 3.64429 4.92113 -10.6577 -5.45975 17.5404 -2.25843e-06 -4.01843 3.69513e-06 -8.60914 1.63111 -3.87056 4.50344 16.2971 0.389142 -1.87315 -16.5096 15.4695 -7.88658e-07 -4.20758 -2.36486e-07 
2.27038 100.593 25.6252 4.79928 0.527552 -11.2764 -4.73139 7.25296 2.19901 -0.88996 1.42555 1.61103 -0.887857 1.4278 1.62346 1.30012 -9.44455 -0.47634 -2.89845 0.660037 4.43644 -7.42679 2.14704 3.8258 -70.6997 7.47765 12.1473 -0.000213936 9.77408e-06 -26.7783 -5.37254 -22.2327 17.2209 5.23837 3.22331 9.45342 73.382 0.590699 0.738764 1.67538e-05 3.34781e-06 24.7971 -6.45903 0.277729 -10.0157 0.557713 -33.0676 -6.15039 4.74251 3.64886 6.99 -10.233 -11.247 19.7985 2.17558e-06 -2.47572 -2.18643e-06 -9.46438 2.7469 -3.18752 4.50925 19.0803 -0.800541 -0.260963 -19.4499 17.8675 1.03916e-06 -6.02401 -1.91003e-06 
2.83862 99.2141 30.8212 4.41146 0.501584 -13.802 -4.44805 7.58904 3.03955 -0.900847 1.50898 1.97208 -0.901861 1.51199 1.98165 1.17657 -9.67387 -0.511319 -3.36518 -0.052123 4.87854 -8.28388 2.06129 4.86283 -68.4862 6.03838 9.63342 -0.00022279 1.15162e-05 -23.915 -4.4655 -11.074 20.0626 5.10877 3.20231 9.61234 72.7838 0.317981 0.10962 1.46559e-05 -1.30541e-06 26.5739 -5.83573 -0.111591 -11.3794 1.77732 -35.1283 -5.46717 4.52933 5.43357 7.41064 -9.0867 -12.4251 18.4322 2.84735e-07 -1.5802 6.41576e-06 -10.5815 4.40741 -2.12659 4.39316 21.2307 -1.92694 1.38652 -21.1434 19.4962 4.98996e-07 -9.25112 -2.47441e-06 
3.1946 97.717 36.4272 4.77624 0.41322 -14.5339 -4.53818 7.45478 3.21415 -1.03481 1.41067 2.02442 -1.03597 1.41385 2.03275 1.20766 -9.69514 -0.491239 -3.31551 0.0286136 5.32927 -9.10726 1.98347 5.38187 -65.6075 4.59599 6.6305 -0.000216084 1.39674e-06 -21.146 -3.92163 0.588934 25.3126 5.11923 3.20382 9.60108 72.9072 0.0528109 -1.75915 2.30467e-05 6.92072e-06 29.0322 -5.76087 -0.643188 -12.974 0.673278 -37.2381 -2.90733 4.14377 11.5992 7.09197 -9.10789 -9.30264 14.1256 6.91152e-07 -1.45752 8.16612e-07 -12.0118 5.1085 -0.609741 4.25681 25.8805 -2.90795 5.36702 -21.1817 21.2012 1.81158e-06 -12.8695 1.93608e-06 
